# xmcd CD database file
#
# Track frame offsets:
#	150
#	31849
#	52583
#	96809
#	128887
#	155142
#	180678
#	212656
#	238341
#
# Disc length: 3612 seconds
#
# Revision: 0
# Processed by: cddbd v1.4PL0 Copyright (c) Steve Scherf et al.
# Submitted via: CDex 1.50beta8
#
DISCID=740e1a09
DTITLE=Vincent Herring/Renato Chicco/Paulo Cardoso/Joris Dudli - Ends and Means
DYEAR=2000
DGENRE=Jazz
TTITLE0=Joanne Julia
TTITLE1=Distances
TTITLE2=Ends and Means
TTITLE3=Dismal
TTITLE4=Terrestrial
TTITLE5=Vince In Linz
TTITLE6=Tobago
TTITLE7=The Loop
TTITLE8=Don't Let It Go
EXTD=YEAR: 2000
EXTT0=
EXTT1=
EXTT2=
EXTT3=
EXTT4=
EXTT5=
EXTT6=
EXTT7=
EXTT8=
PLAYORDER=
